<svg xmlns="http://www.w3.org/2000/svg" width="1433" height="360" aria-label="BAI Bruin Alpha Investment" style="color:#031e42" viewBox="0 0 1432.85 360"><title>BAI - Bruin Alpha Investment</title><defs><linearGradient id="mGrad" x1="0" x2="0" y1="0" y2="360" gradientUnits="userSpaceOnUse"><stop offset="0" stop-color="#e8d289"/><stop offset=".45" stop-color="#b49340"/><stop offset=".75" stop-color="#9e7b2f"/><stop offset="1" stop-color="#926f25"/></linearGradient><linearGradient id="tGrad" x1="0" x2="0" y1="0" y2="162" gradientUnits="userSpaceOnUse"><stop offset="0" stop-color="#b89346"/><stop offset="1" stop-color="#b89346"/></linearGradient></defs><g fill="currentColor"><path d="M522.1 34.55c-31.84 7.74-68.9 17.03-69.49 17.42-.48.29.58 1.55 2.32 2.8a28 28 0 0 1 3.97 3.49c.39.68.78 10.74.78 22.35 0 16.46.29 21.1 1.25 20.81.59-.29 3-3.97 5.33-8.42 5.9-11.42 5.32-16.93-2.71-28.64-3.78-5.42-2.52-5.62 2.9-.4 7.45 7.27 9.68 16.46 5.8 24.88-8.03 17.61-50.22 64.55-89.02 99a802 802 0 0 0-13.55 12.1A541 541 0 0 1 343.74 222a1177 1177 0 0 0-14.51 11.42c-2.52 2.03-4.84 3.68-5.23 3.68s-1.74-1.84-3-4.16c-12.48-22.17-19.45-34.26-20.42-35.33-.97-1.06-1.74-.58-4.06 2.42-3.4 4.55-31.65 39-39.49 48.2a819 819 0 0 1-45.1 48.96c-16.06 16.16-17.32 17.13-23.7 19.46-3.68 1.45-7.84 2.9-9.2 3.19-3.48.97-28.35 9.77-58.55 20.7a1768 1768 0 0 1-34.16 12.2c-4.45 1.45-7.93 2.71-7.74 2.9.3.3 11.32-2.12 39.48-8.6 3.49-.88 11.52-2.62 17.9-4.07 11.23-2.42 49.17-12.3 59.04-15.3 3.68-1.15 6.97-3.48 14.03-9.86a531 531 0 0 1 13.84-12.3c6-5.12 38.71-39.86 58.26-61.93 8.42-9.48 15.68-17.03 16.16-16.93.58.19 5.23 8.41 10.35 18.19 5.23 9.87 9.97 17.9 10.46 17.9.58 0 6.48-4.55 13.06-10.16s22.65-19.06 35.61-30c30.87-25.93 41.42-35.42 62.42-56.61 26.13-26.23 45.3-48.49 59.52-69 3.39-4.94 6.39-8.9 6.68-8.9.38 0 3.1 3.77 6.1 8.41l5.5 8.42 1.07-2.8c.97-2.42 14.9-56.71 16.84-65.62.39-1.45.3-2.51-.1-2.51-.48.1-1.64.39-2.7.58"/><path d="M3.87 55.65c0 2.32.2 2.42 6.3 2.42 8.6 0 18.18 2.51 21 5.51L33.38 66l.29 117.97c.29 128.32.48 122.61-5.13 126.29-1.45.97-6.3 2.13-11.42 2.7-6.68.88-8.9 1.46-8.9 2.52 0 1.26 7.74 1.46 58.06 1.46 64.35 0 63.58.1 83.8-6.68 24.49-8.13 41.81-24.78 48.97-46.74 3.58-10.94 3.58-26.62 0-37.55-1.45-4.26-4.06-10.36-6-13.55-8.6-14.32-25.93-27.1-45.48-33.39-3.68-1.16-7.16-2.51-7.55-2.9-.48-.39 1.65-1.74 4.84-2.9 23.42-8.71 39.2-24.49 44.32-44.23 1.94-7.35 1.84-21.77-.1-28.45-6-20.23-20.03-33.3-44.7-41.52-15.97-5.32-23.23-5.8-84.78-5.8H3.87zm112.74 10.54a59 59 0 0 1 12.58 5.9c9.39 6.5 17.81 19.17 20.9 31.46 1.75 6.97 1.75 27 0 33.87-2.03 8.23-7.54 17.9-12.86 22.74-10.46 9.39-21.59 12.39-44.52 11.9-8.32-.19-15.39-.58-15.68-.87-.87-.77-.77-106.16 0-107.51q.58-1.02 16.26-.58c13.55.38 16.55.87 23.32 3.1m-.48 116.71c22.16 4.94 37.93 21.3 44.13 45.49 2.42 9.38 2.32 29.42-.1 38.61-4.84 18.68-17.8 32.52-35.7 38.52-7.17 2.42-9.2 2.6-23.33 2.6-19.07 0-23.23-.96-24-5.5-.58-3.1-.97-53.23-.78-97.75l.1-22.93h17.71c9.68 0 19.55.48 21.97.96m365.8-54.97a605 605 0 0 1-15.19 17.8l-6.97 7.94-.29 75.29c-.29 61.93-.48 75.87-1.64 78-1.65 3.29-6.78 5.32-15 6.2-5.32.57-6.39.96-6.39 2.41 0 1.74 1.65 1.84 41.52 1.84 22.93 0 41.8-.39 42.1-.77 1.15-1.84-1.46-2.81-10.55-3.78-11.33-1.26-14.52-2.52-16.75-6.48-1.45-2.71-1.64-11.42-2.13-95.71l-.48-92.71z"/></g><g fill="url(#mGrad)" transform="matrix(.1 0 0 -.1 0 372)"><path d="M3154 3666c-4-10-89-263-189-564s-208-619-240-707c-428-1190-689-1868-735-1907-11-9-46-22-78-28-112-21-126-26-130-39-6-19 50-9 147 25 75 27 79 30 271 223l196 196 41 130c23 72 73 222 112 335 63 180 289 872 457 1393 31 98 60 174 64 170 7-8 62-168 350-1017 77-225 143-413 147-417 5-5 34 13 65 39 30 26 90 76 133 112 90 76 89 67 27 235-52 140-321 933-487 1435-70 212-131 389-136 394-5 6-11 2-15-8"/><path d="M3874 1337c-33-28-90-77-128-107-61-50-67-58-63-85 3-16 41-135 86-264 45-128 84-256 87-285 10-85-18-106-168-131-29-4-38-11-38-25 0-20 10-20 420-20 404 0 420 1 420 19 0 16-12 20-77 30-134 20-146 35-233 279-104 292-228 624-237 633-5 5-34-14-69-44"/><path d="m2225 487-70-67 155 2c136 3 155 5 158 20 2 13-6 18-35 23-21 3-58 11-83 18-38 11-46 18-50 42l-6 30z"/></g><path fill="currentColor" d="M1062.84 103.81c-.47.65-2.69 5.37-4.82 10.46-16.38 38.98-18.97 44.44-22.03 45.83-1.66.74-3.05 1.66-3.05 2.03 0 .47 3.8.74 8.33.74 8.7 0 10.27-.74 5.55-2.5-1.48-.55-2.77-1.75-2.77-2.5 0-.83 1.3-4.62 2.96-8.51l2.87-6.94 11.94.27 11.94.28 2.78 6.48c3.33 8.06 3.42 10.28.37 11.02-1.3.37-2.32 1.02-2.32 1.48 0 .55 4.45.92 11.11.92 6.11 0 11.11-.37 11.11-.74s-1.39-1.2-2.96-1.85c-4.26-1.48-3.52-.18-15.55-29.34a1622 1622 0 0 0-8.43-20.55c-3.15-7.6-4.9-9.26-7.03-6.58m4.63 23.42 4.16 10.19-4.53.28c-2.41.18-6.76.18-9.54 0l-5-.28 2.96-7.4c5.56-13.62 6.11-14.73 6.95-13.8.46.46 2.68 5.37 5 11.01m323.16-23.79c-.83.56-6.39 12.78-20.74 45.92-2.96 6.76-4.72 9.53-6.66 10.65-1.39.83-2.6 1.75-2.6 2.12 0 .47 3.53.74 7.88.74 8.14 0 9.62-.74 5.46-2.68-2.13-.93-2.4-1.48-1.95-4.35.28-1.76 1.58-5.46 2.87-8.24l2.32-5.1h23.7l2.59 6.67c3.15 8.24 3.15 9.72.18 11.11-4.35 1.95-2.31 2.6 8.8 2.6 6.1 0 11.1-.38 11.1-.75s-1.38-1.2-3.05-1.85c-3.6-1.3-3.98-1.94-13.24-24.71l-9.9-24.54c-3.15-7.5-4.54-9.16-6.76-7.59m3.7 22.96c2.32 5.74 4.26 10.55 4.26 10.93 0 .27-4.35.55-9.72.55h-9.72l1.76-4.44c4.54-11.48 7.96-18.61 8.52-18.05.28.46 2.5 5.36 4.9 11.01m-790-22.03c0 .46 1.4 1.39 2.97 2.13 4.07 1.76 4.25 3.42 3.6 30.27l-.55 21.94-2.96 1.39c-1.67.74-3.06 1.76-3.06 2.13 0 .46 8.06.64 17.96.46l17.96-.28 3.98-2.78c5.28-3.8 7.4-6.85 7.96-11.75.74-6.67-3.98-13.33-11.3-15.83l-3.7-1.3 2.88-1.48c4.9-2.5 7.77-6.66 7.77-11.3 0-2.21-.46-5-1.02-6.2-1.1-2.68-5.92-6.01-10.18-7.21-3.8-1.12-32.3-1.2-32.3-.19m30.55 5.46c5.1 4.54 4.72 13.6-.74 17.87-1.76 1.39-3.7 1.85-8.15 1.85h-5.92v-22.22h6.02c5.18 0 6.38.28 8.8 2.5m-2.5 24.44c1.95.46 4.82 2.13 6.39 3.52 2.31 2.03 2.96 3.42 3.33 7.5.83 9.25-3.98 14.16-14.16 14.07-3.24 0-6.3-.28-6.85-.56-.65-.46-1.02-4.9-1.02-12.59v-11.94l3.05-.37c1.58-.19 3.61-.37 4.36-.46.74-.1 2.96.27 4.9.83m48.77-29.81c0 .65.74 1.3 1.66 1.67 4.82 1.66 4.82 1.66 4.82 26.29 0 12.59-.37 23.97-.84 25.18a5 5 0 0 1-3.7 2.96c-5.74 1.2-1.57 2.31 8.8 2.31 10.46 0 12.95-.83 7.86-2.59-2.03-.74-2.68-1.66-3.14-4.44-.93-5.28-.74-18.7.18-19.26.37-.27 2.5-.18 4.63.19 3.8.65 4.26 1.11 11.02 11.2 3.88 5.83 8.23 11.39 9.62 12.4 4.08 3.06 16.48 4.17 16.48 1.49 0-.47-.65-.84-1.39-.84-4.53 0-11.1-7.03-20.27-21.47l-3.33-5.28 3.88-2.13c5.37-2.96 7.5-6.2 7.87-12.03.56-6.67-1.76-10.65-7.68-13.7-4.17-2.13-5.55-2.32-20.46-2.6-11.38-.27-16.01 0-16.01.65m31 5.65c5 4.72 5.1 14.07.1 19.07-2.4 2.31-3.89 2.96-8.7 3.52-3.15.37-6.2.37-6.67.09-1.1-.65-1.3-23.88-.18-24.9.37-.37 3.42-.56 6.85-.37 5 .27 6.66.74 8.6 2.59m46.48-5.93c-1.02 1.12.28 2.23 2.6 2.23 1.29 0 2.68.74 3.23 1.76.56 1.1.93 9.34.93 20.45 0 20.18.55 22.96 5.37 28.05 4.16 4.45 9.16 6.48 16.94 6.95 4.16.27 8.42 0 10.36-.65 5.74-1.95 10.83-6.3 13.24-11.48 2.13-4.63 2.22-5.65 2.22-23.6 0-17.5.1-18.8 1.85-20.56 1.02-1.02 2.5-1.85 3.34-1.85.74 0 1.1-.46.83-.92-.65-1.12-17.13-1.3-17.13-.19 0 .46 1.4 1.39 3.06 2.13l2.96 1.3.28 17.12c.37 21.75 0 24.16-4.07 28.7-3.98 4.35-8.24 5.92-14.72 5.37-6.02-.56-10.65-3.43-13.61-8.61-1.94-3.43-2.13-4.9-2.4-21.85-.38-19.35 0-21.75 3.7-22.3 1.2-.2 2.12-.75 2.12-1.21 0-1.02-20.08-1.85-21.1-.84m92.11.56c.27.65 1.3 1.3 2.4 1.48 3.8.56 3.9 1.67 3.7 27.59l-.27 24.9-2.96 1.39c-1.67.74-3.06 1.66-3.06 2.03 0 .47 5 .74 11.11.74 6.76 0 11.1-.37 11.1-.92 0-.56-.64-.93-1.38-.93s-2.22-.83-3.24-1.85c-1.76-1.76-1.85-3.05-1.85-25.55 0-13.51.37-24.34.92-25.36.47-.93 1.95-1.95 3.24-2.22 1.3-.37 2.32-1.02 2.32-1.48 0-.56-4.54-.93-11.2-.93-8.52 0-11.11.28-10.83 1.11m52.76 0c.28.65 1.3 1.3 2.4 1.48 4.45.65 4.82 2.69 4.73 25.64-.1 11.67-.37 22.5-.74 24.07-.37 1.95-1.48 3.24-3.52 4.17-1.66.74-3.05 1.66-3.05 2.03 0 .47 3.98.74 8.8.74 8.42 0 11.38-1.01 6.47-2.22a5.2 5.2 0 0 1-3.24-2.96c-.55-1.3-.92-11.1-.92-21.85v-19.53l1.94 1.76c1.11.93 6.39 6.76 11.85 12.87 24.34 27.68 28.23 31.93 29.44 31.93.92 0 1.2-4.9 1.2-26.47 0-15.37.37-27.12.93-28.14.46-.93 1.94-1.95 3.24-2.22 5.09-1.3 2.03-2.41-6.58-2.41-6.66 0-8.8.28-8.51 1.11.27.65 1.2 1.39 2.22 1.57 3.98.74 4.07 1.4 4.07 21.3l-.1 19.06-5.64-6.01a924 924 0 0 1-18.98-21.57l-13.42-15.46h-6.48c-4.72 0-6.39.28-6.1 1.11m221.24 0c.27.65 1.2 1.39 2.22 1.57.92.1 2.5.93 3.42 1.76 1.4 1.3 1.58 3.61 1.58 23.89 0 12.68-.37 23.5-.93 24.9a6.3 6.3 0 0 1-3.7 3.33c-6.2 2.22-2.13 2.68 19.16 2.5l21.94-.28 1.11-3.7c1.95-7.13 2.22-9.72 1.02-9.72-.65 0-1.94 1.48-2.78 3.24-2.5 5.28-4.9 6.2-16.01 6.2-7.32 0-10-.28-10.65-1.2-.46-.74-.83-11.76-.83-24.53 0-24.26.28-25.74 4.07-26.48a2.9 2.9 0 0 0 2.22-1.48c.28-.83-2.31-1.11-10.92-1.11s-11.2.28-10.92 1.11m74.98 0c.28.65 1.2 1.39 2.22 1.57.93.1 2.5.93 3.43 1.76 1.38 1.3 1.57 3.61 1.57 24.35 0 12.59-.37 23.97-.83 25.18a5 5 0 0 1-3.7 2.96c-6.12 1.3-2.41 2.31 8.7 2.31 7.3 0 11.57-.37 11.57-.92 0-.56-1.3-1.2-2.78-1.57-1.57-.28-3.24-1.3-3.8-2.23-.46-1.01-.74-6.01-.64-11.2l.27-9.53 5.74.28c8.24.46 14.72-1.67 19.26-6.3 3.33-3.42 3.6-4.17 3.98-9.53.55-9.08-3.52-14.82-12.31-17.22-5.46-1.48-33.14-1.4-32.68.09m29.44 3.98c7.96 4.07 7.77 18.7-.28 23.7-2.22 1.3-4.26 1.76-8.05 1.57l-5.1-.28-.27-11.94c-.1-6.66 0-12.59.18-13.23.65-1.67 10.18-1.58 13.52.18m46.28-3.79c0 .74.93 1.48 2.04 1.66 3.98.56 4.44 3.43 4.35 26.2-.1 11.66-.37 22.3-.74 23.6s-1.94 2.97-3.61 3.8c-1.57.83-2.69 1.76-2.32 2.13.84.83 21.57.74 21.57-.19 0-.37-1.38-1.3-3.05-2.03l-2.96-1.4-.28-12.3-.28-12.22 15.55.18 15.56.28.27 8.33c.19 4.54 0 10.1-.27 12.31-.47 3.43-1.02 4.17-3.34 5-5.09 1.76-2.68 2.6 7.96 2.6 5.84 0 10.65-.28 10.65-.75 0-.37-1.39-1.3-3.06-2.03l-2.96-1.4-.28-23.6c-.09-12.96 0-24.53.28-25.64s1.67-2.31 3.24-2.87c5.56-2.03 2.96-2.96-7.87-2.96-10.55 0-13.05.83-7.96 2.6 3.15 1.1 3.8 3.6 3.8 15.08v8.24h-31.48V119c0-10.83.37-12.04 4.08-12.69 1.02-.18 1.94-.92 2.22-1.57.28-.83-2.22-1.11-10.37-1.11-8.7 0-10.74.28-10.74 1.3m-296.22 125.8c-1.3.65-2.87 2.4-3.61 3.89-1.76 3.6 0 6.66 5.55 9.72 7.96 4.35 9.35 6.94 5.1 9.72-2.88 1.85-6.49 1.02-8.99-2.22l-1.94-2.41.37 3.24c.28 2.78.65 3.24 3.52 3.89 7.59 1.66 14.8-1.95 14.8-7.4 0-2.97-2.4-5.56-7.4-8.06-4.44-2.22-6.48-4.17-6.48-6.11 0-3.8 6.67-4.45 10.46-1.11 1.48 1.39 1.58 1.3 1.58-.84 0-1.94-.56-2.5-2.87-2.96-4.36-.83-7.5-.65-10.1.65m-202.91.83c.74.74 1.11 4.72 1.11 11.85s-.37 11.11-1.11 11.85c-.83.83.1 1.11 4.35 1.11s5.18-.28 4.35-1.1c-1.57-1.58-1.57-23.52.1-24.17.55-.28-1.4-.56-4.36-.56-4.35-.09-5.27.19-4.44 1.02m37.95 0c1.76 1.76 1.48 21.48-.37 23.33-1.3 1.39-1.1 1.48 2.5 1.48 3.15 0 3.7-.28 2.87-1.1-.74-.75-1.1-4.18-1.1-9.27v-8.14l11 9.25c6.02 5.1 11.4 9.26 12.04 9.26.74 0 1.02-3.6 1.02-11.85 0-7.96.37-12.22 1.11-12.96.83-.83.19-1.1-2.96-1.1-3.33.08-3.8.27-2.5 1.01s1.57 2.31 1.57 8.7c0 4.35-.27 7.87-.55 7.87s-5.28-3.98-11.2-8.8c-5.93-4.9-11.48-8.79-12.6-8.79-1.47 0-1.66.28-.83 1.11m55.92-.18c.83.55 4.35 6.38 7.87 12.96 3.42 6.57 6.75 12.03 7.22 12.03.55 0 2.87-3.6 5.09-8.05a258 258 0 0 1 7.13-12.96l2.96-4.9h-3.15c-2.4 0-3.05.36-2.68 1.29.46 1.3-6.4 17.22-7.41 17.22-1.11 0-8.98-15.93-8.52-17.13.37-1.11-.46-1.39-4.81-1.39-3.89.1-4.9.28-3.7.93m57.02.18c1.57 1.58 1.57 22.13 0 23.7-.83.83 1.2 1.11 9.26 1.11h10.37v-2.31c0-1.3-.37-2.32-.93-2.32a.93.93 0 0 0-.93.93c0 .46-2.31.92-5.09.92h-5.09v-4.53c0-2.6.28-4.82.74-5 .37-.28 2.6-.19 5.1.28 3.97.55 4.34.46 4.34-1.3s-.46-1.94-5.09-1.67l-5.09.38v-9.45h4.44c2.41 0 4.91.47 5.56 1.11.83.84 1.11.65 1.11-.92 0-1.95-.28-2.04-9.9-2.04-7.69 0-9.63.28-8.8 1.11m90.91.74c0 1.58.27 1.76 1.75.93 1.02-.46 3.34-.93 5.1-.93h3.33v10.93c0 7.22-.37 11.29-1.11 12.03-.84.83 0 1.11 3.89 1.11 3.88 0 4.72-.28 3.88-1.1-.74-.75-1.1-4.82-1.1-12.04V232.3h3.6c2.04 0 3.98.37 4.26.93.93 1.57 2.32 1.02 2.32-.93 0-1.76-.65-1.85-12.96-1.85-12.4 0-12.96.1-12.96 1.85m54.61-1.3c0 2.78-4.07 23.33-4.81 24.26-.74.83-.19 1.11 2.5 1.11s3.24-.28 2.5-1.2c-1.48-1.67.55-15.1 2.03-13.61.56.56 2.69 3.98 4.72 7.6 2.04 3.6 4.17 6.56 4.63 6.56.56 0 3.06-3.6 5.65-8.05 5.37-8.98 5.46-8.98 6.48 2.4l.65 6.3h4.16c3.98 0 4.08-.1 2.69-1.66a5.5 5.5 0 0 1-1.58-3.34c0-4.81-3.14-20.92-4.07-20.92-.55 0-3.52 4.17-6.48 9.26s-5.65 9.07-6.1 8.8c-.38-.28-2.97-4.45-5.75-9.26-2.68-4.82-5.46-8.8-6.01-8.8-.65 0-1.2.28-1.2.56m58.59 1.11c2.31 2.5 2.22 20.09 0 22.59-1.48 1.66-1.2 1.75 9.07 1.48 10.18-.28 10.55-.37 10.83-2.41.37-2.4-.09-2.5-3.05-.56-1.3.84-3.61 1.3-5.74 1.11l-3.52-.27-.28-5-.28-4.9 5.56.36c5.28.37 5.65.28 5.65-1.57s-.37-1.95-5.56-1.58l-5.55.38v-9.45h4.9c2.69 0 5.37.47 6.02 1.11.83.84 1.11.65 1.11-.92 0-1.95-.28-2.04-10.37-2.04-9.9 0-10.18.1-8.79 1.67m48.6 8.61c.18 5.64-.1 11.48-.65 12.96-.92 2.68-.83 2.68 2.5 2.68 2.6 0 3.06-.28 2.22-1.1-1.1-1.12-1.66-16.49-.55-16.49.27 0 3.05 2.13 6.2 4.82 3.15 2.68 8.05 6.85 10.92 9.25s5.46 4.08 5.83 3.8c.28-.37.56-5.83.56-12.31 0-7.87.37-12.04 1.11-12.78.83-.83.28-1.1-2.87-1.1-3.6 0-3.8.08-2.5 1.47 1.02 1.02 1.48 3.15 1.39 7.13-.1 9.81-.1 9.81-11.76.1-5.74-4.82-10.92-8.7-11.57-8.7-.83 0-1.02 2.68-.83 10.27m52.95-8.43c0 2.04.93 2.41 2.5.84.55-.56 2.4-.84 4.07-.65l3.15.28.28 10.55c.18 6.94-.1 10.92-.84 11.76-.92 1.1-.27 1.3 3.8 1.3s4.72-.2 3.8-1.3c-.75-.84-1.02-4.82-.84-11.76l.28-10.55 3.15-.28c1.66-.19 3.51.1 4.07.65 1.57 1.57 2.5 1.2 2.5-.84 0-1.76-.65-1.85-12.96-1.85s-12.96.1-12.96 1.85"/><g fill="url(#tGrad)" transform="matrix(.1 0 0 -.1 0 175)"><path d="M2030 760C784 750 40 739 40 730c0-17 1433-24 4870-24 3251 0 4093 4 4108 19 3 3 3 7 0 10-22 22-5127 40-6988 25"/><path d="M410 191c0-16 254-23 669-20 312 3 405 7 409 17 3 9-109 12-537 12-313 0-541-4-541-9"/><path d="M7563 188c3-10 118-13 532-13s529 3 533 13c3 9-108 12-533 12s-536-3-532-12"/></g></svg>