<svg xmlns="http://www.w3.org/2000/svg" viewBox="0 0 906 567" width="906" height="567">
  <defs>
    <linearGradient id="goldGrad" gradientUnits="userSpaceOnUse" x1="0" y1="5670.0" x2="0" y2="-0.0">
      <stop offset="0.0000" stop-color="#E8D289"/>
      <stop offset="0.3000" stop-color="#B49340"/>
      <stop offset="0.5000" stop-color="#9E7B2F"/>
      <stop offset="0.6200" stop-color="#926F25"/>
      <stop offset="0.8600" stop-color="#B89346"/>
      <stop offset="1.0000" stop-color="#B89346"/>
    </linearGradient>
  </defs>
  
  <rect x="0.0" y="0.0" width="906.0" height="567.0" fill="#FFFFFF"/>
<g transform="translate(0.000000,567.000000) scale(0.100000,-0.100000)">
    <path fill="#031E42" d="M7125 5313 c-329 -80 -712 -176 -718 -180 -5 -3 6 -16 24 -29 18 -13
36 -30 41 -36 4 -7 8 -111 8 -231 0 -170 3 -218 13 -215 6 3 31 41 55 87 61
118 55 175 -28 296 -39 56 -26 58 30 4 77 -75 100 -170 60 -257 -83 -182 -519
-667 -920 -1023 -58 -51 -121 -107 -140 -125 -92 -83 -174 -153 -268 -228 -57
-44 -125 -98 -150 -118 -26 -21 -50 -38 -54 -38 -4 0 -18 19 -31 43 -129 229
-201 354 -211 365 -10 11 -18 6 -42 -25 -35 -47 -327 -403 -408 -498 -155
-182 -305 -345 -466 -506 -166 -167 -179 -177 -245 -201 -38 -15 -81 -30 -95
-33 -36 -10 -293 -101 -605 -214 -148 -54 -307 -111 -353 -126 -46 -15 -82
-28 -80 -30 3 -3 117 22 408 89 36 9 119 27 185 42 116 25 508 127 610 158 38
12 72 36 145 102 52 48 117 105 143 127 62 53 400 412 602 640 87 98 162 176
167 175 6 -2 54 -87 107 -188 54 -102 103 -185 108 -185 6 0 67 47 135 105 68
58 234 197 368 310 319 268 428 366 645 585 270 271 468 501 615 713 35 51 66
92 69 92 4 0 32 -39 63 -87 l57 -87 11 29 c10 25 154 586 174 678 4 15 3 26
-1 26 -5 -1 -17 -4 -28 -6z"/>
    <path fill="#031E42" d="M1770 5095 c0 -24 2 -25 65 -25 89 0 188 -26 217 -57 l23 -25 3
-1219 c3 -1326 5 -1267 -53 -1305 -15 -10 -65 -22 -118 -28 -69 -9 -92 -15
-92 -26 0 -13 80 -15 600 -15 665 0 657 -1 866 69 253 84 432 256 506 483 37
113 37 275 0 388 -15 44 -42 107 -62 140 -89 148 -268 280 -470 345 -38 12
-74 26 -78 30 -5 4 17 18 50 30 242 90 405 253 458 457 20 76 19 225 -1 294
-62 209 -207 344 -462 429 -165 55 -240 60 -876 60 l-576 0 0 -25z m1165 -109
c44 -14 102 -42 130 -61 97 -67 184 -198 216 -325 18 -72 18 -279 0 -350 -21
-85 -78 -185 -133 -235 -108 -97 -223 -128 -460 -123 -86 2 -159 6 -162 9 -9
8 -8 1097 0 1111 4 7 60 9 168 6 140 -4 171 -9 241 -32z m-5 -1206 c229 -51
392 -220 456 -470 25 -97 24 -304 -1 -399 -50 -193 -184 -336 -369 -398 -74
-25 -95 -27 -241 -27 -197 0 -240 10 -248 57 -6 32 -10 550 -8 1010 l1 237
183 0 c100 0 202 -5 227 -10z"/>
    <path fill="#031E42" d="M6710 4348 c-47 -57 -117 -140 -157 -184 l-72 -82 -3 -778 c-3 -640
-5 -784 -17 -806 -17 -34 -70 -55 -155 -64 -55 -6 -66 -10 -66 -25 0 -18 17
-19 429 -19 237 0 432 4 435 8 12 19 -15 29 -109 39 -117 13 -150 26 -173 67
-15 28 -17 118 -22 989 l-5 958 -85 -103z"/>
    <path fill="#031E42" d="M5063 1698 c-5 -7 -29 -58 -52 -113 -177 -421 -205 -480 -238 -495
-18 -8 -33 -18 -33 -22 0 -5 41 -8 90 -8 94 0 111 8 60 27 -16 6 -30 19 -30
27 0 9 14 50 32 92 l31 75 129 -3 129 -3 30 -70 c36 -87 37 -111 4 -119 -14
-4 -25 -11 -25 -16 0 -6 48 -10 120 -10 66 0 120 4 120 8 0 4 -15 13 -32 20
-46 16 -38 2 -168 317 -31 77 -72 177 -91 222 -34 82 -53 100 -76 71z m50
-253 l45 -110 -49 -3 c-26 -2 -73 -2 -103 0 l-54 3 32 80 c60 147 66 159 75
149 5 -5 29 -58 54 -119z"/>
    <path fill="#031E42" d="M8604 1702 c-9 -6 -69 -138 -224 -496 -32 -73 -51 -103 -72 -115 -15
-9 -28 -19 -28 -23 0 -5 38 -8 85 -8 88 0 104 8 59 29 -23 10 -26 16 -21 47 3
19 17 59 31 89 l25 55 128 0 128 0 28 -72 c34 -89 34 -105 2 -120 -47 -21 -25
-28 95 -28 66 0 120 4 120 8 0 4 -15 13 -33 20 -39 14 -43 21 -143 267 -40 99
-88 218 -107 265 -34 81 -49 99 -73 82z m40 -248 c25 -62 46 -114 46 -118 0
-3 -47 -6 -105 -6 l-105 0 19 48 c49 124 86 201 92 195 3 -5 27 -58 53 -119z"/>
    <path fill="#031E42" d="M110 1692 c0 -5 15 -15 32 -23 44 -19 46 -37 39 -327 l-6 -237 -32
-15 c-18 -8 -33 -19 -33 -23 0 -5 87 -7 194 -5 l194 3 43 30 c57 41 80 74 86
127 8 72 -43 144 -122 171 l-40 14 31 16 c53 27 84 72 84 122 0 24 -5 54 -11
67 -12 29 -64 65 -110 78 -41 12 -349 13 -349 2z m330 -59 c55 -49 51 -147 -8
-193 -19 -15 -40 -20 -88 -20 l-64 0 0 120 0 120 65 0 c56 0 69 -3 95 -27z
m-27 -264 c21 -5 52 -23 69 -38 25 -22 32 -37 36 -81 9 -100 -43 -153 -153
-152 -35 0 -68 3 -74 6 -7 5 -11 53 -11 136 l0 129 33 4 c17 2 39 4 47 5 8 1
32 -3 53 -9z"/>
    <path fill="#031E42" d="M940 1691 c0 -7 8 -14 18 -18 52 -18 52 -18 52 -284 0 -136 -4 -259
-9 -272 -6 -16 -21 -28 -40 -32 -62 -13 -17 -25 95 -25 113 0 140 9 85 28 -22
8 -29 18 -34 48 -10 57 -8 202 2 208 4 3 27 2 50 -2 41 -7 46 -12 119 -121 42
-63 89 -123 104 -134 44 -33 178 -45 178 -16 0 5 -7 9 -15 9 -49 0 -120 76
-219 232 l-36 57 42 23 c58 32 81 67 85 130 6 72 -19 115 -83 148 -45 23 -60
25 -221 28 -123 3 -173 0 -173 -7z m335 -61 c54 -51 55 -152 1 -206 -26 -25
-42 -32 -94 -38 -34 -4 -67 -4 -72 -1 -12 7 -14 258 -2 269 4 4 37 6 74 4 54
-3 72 -8 93 -28z"/>
    <path fill="#031E42" d="M1777 1694 c-11 -12 3 -24 28 -24 14 0 29 -8 35 -19 6 -12 10 -101
10 -221 0 -218 6 -248 58 -303 45 -48 99 -70 183 -75 45 -3 91 0 112 7 62 21
117 68 143 124 23 50 24 61 24 255 0 189 1 203 20 222 11 11 27 20 36 20 8 0
12 5 9 10 -7 12 -185 14 -185 2 0 -5 15 -15 33 -23 l32 -14 3 -185 c4 -235 0
-261 -44 -310 -43 -47 -89 -64 -159 -58 -65 6 -115 37 -147 93 -21 37 -23 53
-26 236 -4 209 0 235 40 241 13 2 23 8 23 13 0 11 -217 20 -228 9z"/>
    <path fill="#031E42" d="M2772 1688 c3 -7 14 -14 26 -16 41 -6 42 -18 40 -298 l-3 -269 -32
-15 c-18 -8 -33 -18 -33 -22 0 -5 54 -8 120 -8 73 0 120 4 120 10 0 6 -7 10
-15 10 -8 0 -24 9 -35 20 -19 19 -20 33 -20 276 0 146 4 263 10 274 5 10 21
21 35 24 14 4 25 11 25 16 0 6 -49 10 -121 10 -92 0 -120 -3 -117 -12z"/>
    <path fill="#031E42" d="M3342 1688 c3 -7 14 -14 26 -16 48 -7 52 -29 51 -277 -1 -126 -4
-243 -8 -260 -4 -21 -16 -35 -38 -45 -18 -8 -33 -18 -33 -22 0 -5 43 -8 95 -8
91 0 123 11 70 24 -15 4 -30 18 -35 32 -6 14 -10 120 -10 236 l0 211 21 -19
c12 -10 69 -73 128 -139 263 -299 305 -345 318 -345 10 0 13 53 13 286 0 166
4 293 10 304 5 10 21 21 35 24 55 14 22 26 -71 26 -72 0 -95 -3 -92 -12 3 -7
13 -15 24 -17 43 -8 44 -15 44 -230 l-1 -206 -61 65 c-33 36 -126 140 -205
233 l-145 167 -70 0 c-51 0 -69 -3 -66 -12z"/>
    <path fill="#031E42" d="M5732 1688 c3 -7 13 -15 24 -17 10 -1 27 -10 37 -19 15 -14 17 -39
17 -258 0 -137 -4 -254 -10 -269 -6 -15 -22 -30 -40 -36 -67 -24 -23 -29 207
-27 l237 3 12 40 c21 77 24 105 11 105 -7 0 -21 -16 -30 -35 -27 -57 -53 -67
-173 -67 -79 0 -108 3 -115 13 -5 8 -9 127 -9 265 0 262 3 278 44 286 11 1 21
9 24 16 3 9 -25 12 -118 12 -93 0 -121 -3 -118 -12z"/>
    <path fill="#031E42" d="M6542 1688 c3 -7 13 -15 24 -17 10 -1 27 -10 37 -19 15 -14 17 -39
17 -263 0 -136 -4 -259 -9 -272 -6 -16 -21 -28 -40 -32 -66 -14 -26 -25 94
-25 79 0 125 4 125 10 0 6 -14 13 -30 17 -17 3 -35 14 -41 24 -5 11 -8 65 -7
121 l3 103 62 -3 c89 -5 159 18 208 68 36 37 39 45 43 103 6 98 -38 160 -133
186 -59 16 -358 15 -353 -1z m318 -43 c86 -44 84 -202 -3 -256 -24 -14 -46
-19 -87 -17 l-55 3 -3 129 c-1 72 0 136 2 143 7 18 110 17 146 -2z"/>
    <path fill="#031E42" d="M7360 1686 c0 -8 10 -16 22 -18 43 -6 48 -37 47 -283 -1 -126 -4
-241 -8 -255 -4 -14 -21 -32 -39 -41 -17 -9 -29 -19 -25 -23 9 -9 233 -8 233
2 0 4 -15 14 -33 22 l-32 15 -3 133 -3 132 168 -2 168 -3 3 -90 c2 -49 0 -109
-3 -133 -5 -37 -11 -45 -36 -54 -55 -19 -29 -28 86 -28 63 0 115 3 115 8 0 4
-15 14 -33 22 l-32 15 -3 255 c-1 140 0 265 3 277 3 12 18 25 35 31 60 22 32
32 -85 32 -114 0 -141 -9 -86 -28 34 -12 41 -39 41 -163 l0 -89 -170 0 -170 0
0 114 c0 117 4 130 44 137 11 2 21 10 24 17 3 9 -24 12 -112 12 -94 0 -116 -3
-116 -14z"/>
    <path fill="#031E42" d="M4160 327 c-14 -7 -31 -26 -39 -42 -19 -39 0 -72 60 -105 86 -47 101
-75 55 -105 -31 -20 -70 -11 -97 24 l-21 26 4 -35 c3 -30 7 -35 38 -42 82 -18
160 21 160 80 0 32 -26 60 -80 87 -48 24 -70 45 -70 66 0 41 72 48 113 12 16
-15 17 -14 17 9 0 21 -6 27 -31 32 -47 9 -81 7 -109 -7z"/>
    <path fill="#031E42" d="M1968 318 c8 -8 12 -51 12 -128 0 -77 -4 -120 -12 -128 -9 -9 1 -12
47 -12 46 0 56 3 47 12 -17 17 -17 254 1 261 6 3 -15 6 -47 6 -47 1 -57 -2
-48 -11z"/>
    <path fill="#031E42" d="M2378 318 c19 -19 16 -232 -4 -252 -14 -15 -12 -16 27 -16 34 0 40 3
31 12 -8 8 -12 45 -12 100 l0 88 119 -100 c65 -55 123 -100 130 -100 8 0 11
39 11 128 0 86 4 132 12 140 9 9 2 12 -32 12 -36 -1 -41 -3 -27 -11 14 -8 17
-25 17 -94 0 -47 -3 -85 -6 -85 -3 0 -57 43 -121 95 -64 53 -124 95 -136 95
-16 0 -18 -3 -9 -12z"/>
    <path fill="#031E42" d="M2982 320 c9 -6 47 -69 85 -140 37 -71 73 -130 78 -130 6 0 31 39 55
87 25 48 59 111 77 140 l32 53 -34 0 c-26 0 -33 -4 -29 -14 5 -14 -69 -186
-80 -186 -12 0 -97 172 -92 185 4 12 -5 15 -52 15 -42 -1 -53 -3 -40 -10z"/>
    <path fill="#031E42" d="M3598 318 c17 -17 17 -239 0 -256 -9 -9 13 -12 100 -12 l112 0 0 25
c0 14 -4 25 -10 25 -5 0 -10 -4 -10 -10 0 -5 -25 -10 -55 -10 l-55 0 0 49 c0
28 3 52 8 54 4 3 28 2 55 -3 43 -6 47 -5 47 14 0 19 -5 21 -55 18 l-55 -4 0
51 0 51 48 0 c26 0 53 -5 60 -12 9 -9 12 -7 12 10 0 21 -3 22 -107 22 -83 0
-104 -3 -95 -12z"/>
    <path fill="#031E42" d="M4580 310 c0 -17 3 -19 19 -10 11 5 36 10 55 10 l36 0 0 -118 c0 -78
-4 -122 -12 -130 -9 -9 0 -12 42 -12 42 0 51 3 42 12 -8 8 -12 52 -12 130 l0
118 39 0 c22 0 43 -4 46 -10 10 -17 25 -11 25 10 0 19 -7 20 -140 20 -134 0
-140 -1 -140 -20z"/>
    <path fill="#031E42" d="M5170 324 c0 -30 -44 -252 -52 -262 -8 -9 -2 -12 27 -12 29 0 35 3
27 13 -16 18 6 163 22 147 6 -6 29 -43 51 -82 22 -39 45 -71 50 -71 6 0 33 39
61 87 58 97 59 97 70 -26 l7 -68 45 0 c43 0 44 1 29 18 -10 10 -17 26 -17 36
0 52 -34 226 -44 226 -6 0 -38 -45 -70 -100 -32 -55 -61 -98 -66 -95 -4 3 -32
48 -62 100 -29 52 -59 95 -65 95 -7 0 -13 -3 -13 -6z"/>
    <path fill="#031E42" d="M5803 312 c25 -27 24 -217 0 -244 -16 -18 -13 -19 98 -16 110 3 114
4 117 26 4 26 -1 27 -33 6 -14 -9 -39 -14 -62 -12 l-38 3 -3 54 -3 53 60 -4
c57 -4 61 -3 61 17 0 20 -4 21 -60 17 l-60 -4 0 51 0 51 53 0 c29 0 58 -5 65
-12 9 -9 12 -7 12 10 0 21 -3 22 -112 22 -107 0 -110 -1 -95 -18z"/>
    <path fill="#031E42" d="M6328 219 c2 -61 -1 -124 -7 -140 -10 -29 -9 -29 27 -29 28 0 33 3
24 12 -12 12 -18 178 -6 178 3 0 33 -23 67 -52 34 -29 87 -74 118 -100 31 -26
59 -44 63 -41 3 4 6 63 6 133 0 85 4 130 12 138 9 9 3 12 -31 12 -39 0 -41 -1
-27 -16 11 -11 16 -34 15 -77 -1 -106 -1 -106 -127 -1 -62 52 -118 94 -125 94
-9 0 -11 -29 -9 -111z"/>
    <path fill="#031E42" d="M6900 310 c0 -22 10 -26 27 -9 6 6 26 9 44 7 l34 -3 3 -114 c2 -75
-1 -118 -9 -127 -10 -12 -3 -14 41 -14 44 0 51 2 41 14 -8 9 -11 52 -9 127 l3
114 34 3 c18 2 38 -1 44 -7 17 -17 27 -13 27 9 0 19 -7 20 -140 20 -133 0
-140 -1 -140 -20z"/>
  </g>
  <g transform="translate(0.000000,567.000000) scale(0.100000,-0.100000)">
    <path fill="url(#goldGrad)" d="M4884 5616 c-4 -10 -89 -263 -189 -564 -100 -301 -208 -619 -240
-707 -428 -1190 -689 -1868 -735 -1907 -11 -9 -46 -22 -78 -28 -112 -21 -126
-26 -130 -39 -6 -19 50 -9 147 25 75 27 79 30 271 223 l196 196 41 130 c23 72
73 222 112 335 63 180 289 872 457 1393 31 98 60 174 64 170 7 -8 62 -168 350
-1017 77 -225 143 -413 147 -417 5 -5 34 13 65 39 30 26 90 76 133 112 90 76
89 67 27 235 -52 140 -321 933 -487 1435 -70 212 -131 389 -136 394 -5 6 -11
2 -15 -8z"/>
    <path fill="url(#goldGrad)" d="M5604 3287 c-33 -28 -90 -77 -128 -107 -61 -50 -67 -58 -63 -85 3
-16 41 -135 86 -264 45 -128 84 -256 87 -285 10 -85 -18 -106 -168 -131 -29
-4 -38 -11 -38 -25 0 -20 10 -20 420 -20 404 0 420 1 420 19 0 16 -12 20 -77
30 -134 20 -146 35 -233 279 -104 292 -228 624 -237 633 -5 5 -34 -14 -69 -44z"/>
    <path fill="url(#goldGrad)" d="M3955 2437 l-70 -67 155 2 c136 3 155 5 158 20 2 13 -6 18 -35 23
-21 3 -58 11 -83 18 -38 11 -46 18 -50 42 l-6 30 -69 -68z"/>
    <path fill="url(#goldGrad)" d="M2030 760 c-1246 -10 -1990 -21 -1990 -30 0 -17 1433 -24 4870 -24
3251 0 4093 4 4108 19 3 3 3 7 0 10 -22 22 -5127 40 -6988 25z"/>
    <path fill="url(#goldGrad)" d="M410 191 c0 -16 254 -23 669 -20 312 3 405 7 409 17 3 9 -109 12
-537 12 -313 0 -541 -4 -541 -9z"/>
    <path fill="url(#goldGrad)" d="M7563 188 c3 -10 118 -13 532 -13 414 0 529 3 533 13 3 9 -108 12
-533 12 -425 0 -536 -3 -532 -12z"/>
  </g>
</svg>
