<svg xmlns="http://www.w3.org/2000/svg" viewBox="0 0 547 372" width="547" height="372">
  <defs>
    <linearGradient id="goldGrad" gradientUnits="userSpaceOnUse" x1="0" y1="3720.0" x2="0" y2="-0.0">
      <stop offset="0.0000" stop-color="#E8D289"/>
      <stop offset="0.4500" stop-color="#B49340"/>
      <stop offset="0.7500" stop-color="#9E7B2F"/>
      <stop offset="1.0000" stop-color="#926F25"/>
    </linearGradient>
  </defs>
  
  <rect x="0.0" y="0.0" width="547.0" height="372.0" fill="#FFFFFF"/>
<g transform="translate(0.000000,372.000000) scale(0.100000,-0.100000)">
    <path fill="#031E42" d="M5395 3363 c-329 -80 -712 -176 -718 -180 -5 -3 6 -16 24 -29 18 -13
36 -30 41 -36 4 -7 8 -111 8 -231 0 -170 3 -218 13 -215 6 3 31 41 55 87 61
118 55 175 -28 296 -39 56 -26 58 30 4 77 -75 100 -170 60 -257 -83 -182 -519
-667 -920 -1023 -58 -51 -121 -107 -140 -125 -92 -83 -174 -153 -268 -228 -57
-44 -125 -98 -150 -118 -26 -21 -50 -38 -54 -38 -4 0 -18 19 -31 43 -129 229
-201 354 -211 365 -10 11 -18 6 -42 -25 -35 -47 -327 -403 -408 -498 -155
-182 -305 -345 -466 -506 -166 -167 -179 -177 -245 -201 -38 -15 -81 -30 -95
-33 -36 -10 -293 -101 -605 -214 -148 -54 -307 -111 -353 -126 -46 -15 -82
-28 -80 -30 3 -3 117 22 408 89 36 9 119 27 185 42 116 25 508 127 610 158 38
12 72 36 145 102 52 48 117 105 143 127 62 53 400 412 602 640 87 98 162 176
167 175 6 -2 54 -87 107 -188 54 -102 103 -185 108 -185 6 0 67 47 135 105 68
58 234 197 368 310 319 268 428 366 645 585 270 271 468 501 615 713 35 51 66
92 69 92 4 0 32 -39 63 -87 l57 -87 11 29 c10 25 154 586 174 678 4 15 3 26
-1 26 -5 -1 -17 -4 -28 -6z"/>
    <path fill="#031E42" d="M40 3145 c0 -24 2 -25 65 -25 89 0 188 -26 217 -57 l23 -25 3 -1219
c3 -1326 5 -1267 -53 -1305 -15 -10 -65 -22 -118 -28 -69 -9 -92 -15 -92 -26
0 -13 80 -15 600 -15 665 0 657 -1 866 69 253 84 432 256 506 483 37 113 37
275 0 388 -15 44 -42 107 -62 140 -89 148 -268 280 -470 345 -38 12 -74 26
-78 30 -5 4 17 18 50 30 242 90 405 253 458 457 20 76 19 225 -1 294 -62 209
-207 344 -462 429 -165 55 -240 60 -876 60 l-576 0 0 -25z m1165 -109 c44 -14
102 -42 130 -61 97 -67 184 -198 216 -325 18 -72 18 -279 0 -350 -21 -85 -78
-185 -133 -235 -108 -97 -223 -128 -460 -123 -86 2 -159 6 -162 9 -9 8 -8
1097 0 1111 4 7 60 9 168 6 140 -4 171 -9 241 -32z m-5 -1206 c229 -51 392
-220 456 -470 25 -97 24 -304 -1 -399 -50 -193 -184 -336 -369 -398 -74 -25
-95 -27 -241 -27 -197 0 -240 10 -248 57 -6 32 -10 550 -8 1010 l1 237 183 0
c100 0 202 -5 227 -10z"/>
    <path fill="#031E42" d="M4980 2398 c-47 -57 -117 -140 -157 -184 l-72 -82 -3 -778 c-3 -640
-5 -784 -17 -806 -17 -34 -70 -55 -155 -64 -55 -6 -66 -10 -66 -25 0 -18 17
-19 429 -19 237 0 432 4 435 8 12 19 -15 29 -109 39 -117 13 -150 26 -173 67
-15 28 -17 118 -22 989 l-5 958 -85 -103z"/>
  </g>
  <g transform="translate(0.000000,372.000000) scale(0.100000,-0.100000)">
    <path fill="url(#goldGrad)" d="M3154 3666 c-4 -10 -89 -263 -189 -564 -100 -301 -208 -619 -240
-707 -428 -1190 -689 -1868 -735 -1907 -11 -9 -46 -22 -78 -28 -112 -21 -126
-26 -130 -39 -6 -19 50 -9 147 25 75 27 79 30 271 223 l196 196 41 130 c23 72
73 222 112 335 63 180 289 872 457 1393 31 98 60 174 64 170 7 -8 62 -168 350
-1017 77 -225 143 -413 147 -417 5 -5 34 13 65 39 30 26 90 76 133 112 90 76
89 67 27 235 -52 140 -321 933 -487 1435 -70 212 -131 389 -136 394 -5 6 -11
2 -15 -8z"/>
    <path fill="url(#goldGrad)" d="M3874 1337 c-33 -28 -90 -77 -128 -107 -61 -50 -67 -58 -63 -85 3
-16 41 -135 86 -264 45 -128 84 -256 87 -285 10 -85 -18 -106 -168 -131 -29
-4 -38 -11 -38 -25 0 -20 10 -20 420 -20 404 0 420 1 420 19 0 16 -12 20 -77
30 -134 20 -146 35 -233 279 -104 292 -228 624 -237 633 -5 5 -34 -14 -69 -44z"/>
    <path fill="url(#goldGrad)" d="M2225 487 l-70 -67 155 2 c136 3 155 5 158 20 2 13 -6 18 -35 23 -21
3 -58 11 -83 18 -38 11 -46 18 -50 42 l-6 30 -69 -68z"/>
  </g>
</svg>
