<svg xmlns="http://www.w3.org/2000/svg" width="906" height="567" aria-label="BAI Bruin Alpha Investment" viewBox="0 0 906 567"><title>BAI - Bruin Alpha Investment</title><defs><linearGradient id="goldGrad" x1="0" x2="0" y1="5670" y2="0" gradientUnits="userSpaceOnUse"><stop offset="0" stop-color="#e8d289"/><stop offset=".3" stop-color="#b49340"/><stop offset=".5" stop-color="#9e7b2f"/><stop offset=".62" stop-color="#926f25"/><stop offset=".86" stop-color="#b89346"/><stop offset="1" stop-color="#b89346"/></linearGradient></defs><g fill="currentColor"><path d="M712.5 35.7c-32.9 8-71.2 17.6-71.8 18-.5.3.6 1.6 2.4 2.9s3.6 3 4.1 3.6c.4.7.8 11.1.8 23.1 0 17 .3 21.8 1.3 21.5.6-.3 3.1-4.1 5.5-8.7 6.1-11.8 5.5-17.5-2.8-29.6-3.9-5.6-2.6-5.8 3-.4 7.7 7.5 10 17 6 25.7-8.3 18.2-51.9 66.7-92 102.3-5.8 5.1-12.1 10.7-14 12.5-9.2 8.3-17.4 15.3-26.8 22.8-5.7 4.4-12.5 9.8-15 11.8-2.6 2.1-5 3.8-5.4 3.8s-1.8-1.9-3.1-4.3c-12.9-22.9-20.1-35.4-21.1-36.5s-1.8-.6-4.2 2.5c-3.5 4.7-32.7 40.3-40.8 49.8a846 846 0 0 1-46.6 50.6c-16.6 16.7-17.9 17.7-24.5 20.1-3.8 1.5-8.1 3-9.5 3.3-3.6 1-29.3 10.1-60.5 21.4-14.8 5.4-30.7 11.1-35.3 12.6s-8.2 2.8-8 3c.3.3 11.7-2.2 40.8-8.9 3.6-.9 11.9-2.7 18.5-4.2 11.6-2.5 50.8-12.7 61-15.8 3.8-1.2 7.2-3.6 14.5-10.2 5.2-4.8 11.7-10.5 14.3-12.7 6.2-5.3 40-41.2 60.2-64 8.7-9.8 16.2-17.6 16.7-17.5.6.2 5.4 8.7 10.7 18.8 5.4 10.2 10.3 18.5 10.8 18.5.6 0 6.7-4.7 13.5-10.5s23.4-19.7 36.8-31c31.9-26.8 42.8-36.6 64.5-58.5 27-27.1 46.8-50.1 61.5-71.3 3.5-5.1 6.6-9.2 6.9-9.2.4 0 3.2 3.9 6.3 8.7l5.7 8.7 1.1-2.9c1-2.5 15.4-58.6 17.4-67.8.4-1.5.3-2.6-.1-2.6-.5.1-1.7.4-2.8.6"/><path d="M177 57.5c0 2.4.2 2.5 6.5 2.5 8.9 0 18.8 2.6 21.7 5.7l2.3 2.5.3 121.9c.3 132.6.5 126.7-5.3 130.5-1.5 1-6.5 2.2-11.8 2.8-6.9.9-9.2 1.5-9.2 2.6 0 1.3 8 1.5 60 1.5 66.5 0 65.7.1 86.6-6.9 25.3-8.4 43.2-25.6 50.6-48.3 3.7-11.3 3.7-27.5 0-38.8-1.5-4.4-4.2-10.7-6.2-14-8.9-14.8-26.8-28-47-34.5-3.8-1.2-7.4-2.6-7.8-3-.5-.4 1.7-1.8 5-3 24.2-9 40.5-25.3 45.8-45.7 2-7.6 1.9-22.5-.1-29.4-6.2-20.9-20.7-34.4-46.2-42.9-16.5-5.5-24-6-87.6-6H177zm116.5 10.9c4.4 1.4 10.2 4.2 13 6.1 9.7 6.7 18.4 19.8 21.6 32.5 1.8 7.2 1.8 27.9 0 35-2.1 8.5-7.8 18.5-13.3 23.5-10.8 9.7-22.3 12.8-46 12.3-8.6-.2-15.9-.6-16.2-.9-.9-.8-.8-109.7 0-111.1q.6-1.05 16.8-.6c14 .4 17.1.9 24.1 3.2M293 189c22.9 5.1 39.2 22 45.6 47 2.5 9.7 2.4 30.4-.1 39.9-5 19.3-18.4 33.6-36.9 39.8-7.4 2.5-9.5 2.7-24.1 2.7-19.7 0-24-1-24.8-5.7-.6-3.2-1-55-.8-101l.1-23.7h18.3c10 0 20.2.5 22.7 1m378-56.8c-4.7 5.7-11.7 14-15.7 18.4l-7.2 8.2-.3 77.8c-.3 64-.5 78.4-1.7 80.6-1.7 3.4-7 5.5-15.5 6.4-5.5.6-6.6 1-6.6 2.5 0 1.8 1.7 1.9 42.9 1.9 23.7 0 43.2-.4 43.5-.8 1.2-1.9-1.5-2.9-10.9-3.9-11.7-1.3-15-2.6-17.3-6.7-1.5-2.8-1.7-11.8-2.2-98.9l-.5-95.8zm-164.7 265c-.5.7-2.9 5.8-5.2 11.3-17.7 42.1-20.5 48-23.8 49.5-1.8.8-3.3 1.8-3.3 2.2 0 .5 4.1.8 9 .8 9.4 0 11.1-.8 6-2.7-1.6-.6-3-1.9-3-2.7 0-.9 1.4-5 3.2-9.2l3.1-7.5 12.9.3 12.9.3 3 7c3.6 8.7 3.7 11.1.4 11.9-1.4.4-2.5 1.1-2.5 1.6 0 .6 4.8 1 12 1 6.6 0 12-.4 12-.8s-1.5-1.3-3.2-2c-4.6-1.6-3.8-.2-16.8-31.7-3.1-7.7-7.2-17.7-9.1-22.2-3.4-8.2-5.3-10-7.6-7.1m5 25.3 4.5 11-4.9.3c-2.6.2-7.3.2-10.3 0l-5.4-.3 3.2-8c6-14.7 6.6-15.9 7.5-14.9.5.5 2.9 5.8 5.4 11.9m349.1-25.7c-.9.6-6.9 13.8-22.4 49.6-3.2 7.3-5.1 10.3-7.2 11.5-1.5.9-2.8 1.9-2.8 2.3 0 .5 3.8.8 8.5.8 8.8 0 10.4-.8 5.9-2.9-2.3-1-2.6-1.6-2.1-4.7.3-1.9 1.7-5.9 3.1-8.9l2.5-5.5h25.6l2.8 7.2c3.4 8.9 3.4 10.5.2 12-4.7 2.1-2.5 2.8 9.5 2.8 6.6 0 12-.4 12-.8s-1.5-1.3-3.3-2c-3.9-1.4-4.3-2.1-14.3-26.7L867.7 405c-3.4-8.1-4.9-9.9-7.3-8.2m4 24.8c2.5 6.2 4.6 11.4 4.6 11.8 0 .3-4.7.6-10.5.6H848l1.9-4.8c4.9-12.4 8.6-20.1 9.2-19.5.3.5 2.7 5.8 5.3 11.9M11 397.8c0 .5 1.5 1.5 3.2 2.3 4.4 1.9 4.6 3.7 3.9 32.7l-.6 23.7-3.2 1.5c-1.8.8-3.3 1.9-3.3 2.3 0 .5 8.7.7 19.4.5l19.4-.3 4.3-3c5.7-4.1 8-7.4 8.6-12.7.8-7.2-4.3-14.4-12.2-17.1l-4-1.4 3.1-1.6c5.3-2.7 8.4-7.2 8.4-12.2 0-2.4-.5-5.4-1.1-6.7-1.2-2.9-6.4-6.5-11-7.8-4.1-1.2-34.9-1.3-34.9-.2m33 5.9c5.5 4.9 5.1 14.7-.8 19.3-1.9 1.5-4 2-8.8 2H28v-24h6.5c5.6 0 6.9.3 9.5 2.7m-2.7 26.4c2.1.5 5.2 2.3 6.9 3.8 2.5 2.2 3.2 3.7 3.6 8.1.9 10-4.3 15.3-15.3 15.2-3.5 0-6.8-.3-7.4-.6-.7-.5-1.1-5.3-1.1-13.6v-12.9l3.3-.4c1.7-.2 3.9-.4 4.7-.5s3.2.3 5.3.9M94 397.9c0 .7.8 1.4 1.8 1.8 5.2 1.8 5.2 1.8 5.2 28.4 0 13.6-.4 25.9-.9 27.2-.6 1.6-2.1 2.8-4 3.2-6.2 1.3-1.7 2.5 9.5 2.5 11.3 0 14-.9 8.5-2.8-2.2-.8-2.9-1.8-3.4-4.8-1-5.7-.8-20.2.2-20.8.4-.3 2.7-.2 5 .2 4.1.7 4.6 1.2 11.9 12.1 4.2 6.3 8.9 12.3 10.4 13.4 4.4 3.3 17.8 4.5 17.8 1.6 0-.5-.7-.9-1.5-.9-4.9 0-12-7.6-21.9-23.2l-3.6-5.7 4.2-2.3c5.8-3.2 8.1-6.7 8.5-13 .6-7.2-1.9-11.5-8.3-14.8-4.5-2.3-6-2.5-22.1-2.8-12.3-.3-17.3 0-17.3.7m33.5 6.1c5.4 5.1 5.5 15.2.1 20.6-2.6 2.5-4.2 3.2-9.4 3.8-3.4.4-6.7.4-7.2.1-1.2-.7-1.4-25.8-.2-26.9.4-.4 3.7-.6 7.4-.4 5.4.3 7.2.8 9.3 2.8m50.2-6.4c-1.1 1.2.3 2.4 2.8 2.4 1.4 0 2.9.8 3.5 1.9.6 1.2 1 10.1 1 22.1 0 21.8.6 24.8 5.8 30.3 4.5 4.8 9.9 7 18.3 7.5 4.5.3 9.1 0 11.2-.7 6.2-2.1 11.7-6.8 14.3-12.4 2.3-5 2.4-6.1 2.4-25.5 0-18.9.1-20.3 2-22.2 1.1-1.1 2.7-2 3.6-2 .8 0 1.2-.5.9-1-.7-1.2-18.5-1.4-18.5-.2 0 .5 1.5 1.5 3.3 2.3l3.2 1.4.3 18.5c.4 23.5 0 26.1-4.4 31-4.3 4.7-8.9 6.4-15.9 5.8-6.5-.6-11.5-3.7-14.7-9.3-2.1-3.7-2.3-5.3-2.6-23.6-.4-20.9 0-23.5 4-24.1 1.3-.2 2.3-.8 2.3-1.3 0-1.1-21.7-2-22.8-.9m99.5.6c.3.7 1.4 1.4 2.6 1.6 4.1.6 4.2 1.8 4 29.8l-.3 26.9-3.2 1.5c-1.8.8-3.3 1.8-3.3 2.2 0 .5 5.4.8 12 .8 7.3 0 12-.4 12-1s-.7-1-1.5-1-2.4-.9-3.5-2c-1.9-1.9-2-3.3-2-27.6 0-14.6.4-26.3 1-27.4.5-1 2.1-2.1 3.5-2.4 1.4-.4 2.5-1.1 2.5-1.6 0-.6-4.9-1-12.1-1-9.2 0-12 .3-11.7 1.2m57 0c.3.7 1.4 1.4 2.6 1.6 4.8.7 5.2 2.9 5.1 27.7-.1 12.6-.4 24.3-.8 26-.4 2.1-1.6 3.5-3.8 4.5-1.8.8-3.3 1.8-3.3 2.2 0 .5 4.3.8 9.5.8 9.1 0 12.3-1.1 7-2.4-1.5-.4-3-1.8-3.5-3.2-.6-1.4-1-12-1-23.6v-21.1l2.1 1.9c1.2 1 6.9 7.3 12.8 13.9 26.3 29.9 30.5 34.5 31.8 34.5 1 0 1.3-5.3 1.3-28.6 0-16.6.4-29.3 1-30.4.5-1 2.1-2.1 3.5-2.4 5.5-1.4 2.2-2.6-7.1-2.6-7.2 0-9.5.3-9.2 1.2.3.7 1.3 1.5 2.4 1.7 4.3.8 4.4 1.5 4.4 23l-.1 20.6-6.1-6.5c-3.3-3.6-12.6-14-20.5-23.3L347.8 397h-7c-5.1 0-6.9.3-6.6 1.2m239 0c.3.7 1.3 1.5 2.4 1.7 1 .1 2.7 1 3.7 1.9 1.5 1.4 1.7 3.9 1.7 25.8 0 13.7-.4 25.4-1 26.9s-2.2 3-4 3.6c-6.7 2.4-2.3 2.9 20.7 2.7l23.7-.3 1.2-4c2.1-7.7 2.4-10.5 1.1-10.5-.7 0-2.1 1.6-3 3.5-2.7 5.7-5.3 6.7-17.3 6.7-7.9 0-10.8-.3-11.5-1.3-.5-.8-.9-12.7-.9-26.5 0-26.2.3-27.8 4.4-28.6 1.1-.1 2.1-.9 2.4-1.6.3-.9-2.5-1.2-11.8-1.2s-12.1.3-11.8 1.2m81 0c.3.7 1.3 1.5 2.4 1.7 1 .1 2.7 1 3.7 1.9 1.5 1.4 1.7 3.9 1.7 26.3 0 13.6-.4 25.9-.9 27.2-.6 1.6-2.1 2.8-4 3.2-6.6 1.4-2.6 2.5 9.4 2.5 7.9 0 12.5-.4 12.5-1s-1.4-1.3-3-1.7c-1.7-.3-3.5-1.4-4.1-2.4-.5-1.1-.8-6.5-.7-12.1l.3-10.3 6.2.3c8.9.5 15.9-1.8 20.8-6.8 3.6-3.7 3.9-4.5 4.3-10.3.6-9.8-3.8-16-13.3-18.6-5.9-1.6-35.8-1.5-35.3.1m31.8 4.3c8.6 4.4 8.4 20.2-.3 25.6-2.4 1.4-4.6 1.9-8.7 1.7l-5.5-.3-.3-12.9c-.1-7.2 0-13.6.2-14.3.7-1.8 11-1.7 14.6.2m50-4.1c0 .8 1 1.6 2.2 1.8 4.3.6 4.8 3.7 4.7 28.3-.1 12.6-.4 24.1-.8 25.5s-2.1 3.2-3.9 4.1c-1.7.9-2.9 1.9-2.5 2.3.9.9 23.3.8 23.3-.2 0-.4-1.5-1.4-3.3-2.2l-3.2-1.5-.3-13.3-.3-13.2 16.8.2 16.8.3.3 9c.2 4.9 0 10.9-.3 13.3-.5 3.7-1.1 4.5-3.6 5.4-5.5 1.9-2.9 2.8 8.6 2.8 6.3 0 11.5-.3 11.5-.8 0-.4-1.5-1.4-3.3-2.2l-3.2-1.5-.3-25.5c-.1-14 0-26.5.3-27.7s1.8-2.5 3.5-3.1c6-2.2 3.2-3.2-8.5-3.2-11.4 0-14.1.9-8.6 2.8 3.4 1.2 4.1 3.9 4.1 16.3v8.9h-34v-11.4c0-11.7.4-13 4.4-13.7 1.1-.2 2.1-1 2.4-1.7.3-.9-2.4-1.2-11.2-1.2-9.4 0-11.6.3-11.6 1.4M416 534.3c-1.4.7-3.1 2.6-3.9 4.2-1.9 3.9 0 7.2 6 10.5 8.6 4.7 10.1 7.5 5.5 10.5-3.1 2-7 1.1-9.7-2.4l-2.1-2.6.4 3.5c.3 3 .7 3.5 3.8 4.2 8.2 1.8 16-2.1 16-8 0-3.2-2.6-6-8-8.7-4.8-2.4-7-4.5-7-6.6 0-4.1 7.2-4.8 11.3-1.2 1.6 1.5 1.7 1.4 1.7-.9 0-2.1-.6-2.7-3.1-3.2-4.7-.9-8.1-.7-10.9.7m-219.2.9c.8.8 1.2 5.1 1.2 12.8s-.4 12-1.2 12.8c-.9.9.1 1.2 4.7 1.2s5.6-.3 4.7-1.2c-1.7-1.7-1.7-25.4.1-26.1.6-.3-1.5-.6-4.7-.6-4.7-.1-5.7.2-4.8 1.1m41 0c1.9 1.9 1.6 23.2-.4 25.2-1.4 1.5-1.2 1.6 2.7 1.6 3.4 0 4-.3 3.1-1.2-.8-.8-1.2-4.5-1.2-10V542l11.9 10c6.5 5.5 12.3 10 13 10 .8 0 1.1-3.9 1.1-12.8 0-8.6.4-13.2 1.2-14 .9-.9.2-1.2-3.2-1.2-3.6.1-4.1.3-2.7 1.1s1.7 2.5 1.7 9.4c0 4.7-.3 8.5-.6 8.5s-5.7-4.3-12.1-9.5c-6.4-5.3-12.4-9.5-13.6-9.5-1.6 0-1.8.3-.9 1.2m60.4-.2c.9.6 4.7 6.9 8.5 14 3.7 7.1 7.3 13 7.8 13 .6 0 3.1-3.9 5.5-8.7 2.5-4.8 5.9-11.1 7.7-14l3.2-5.3h-3.4c-2.6 0-3.3.4-2.9 1.4.5 1.4-6.9 18.6-8 18.6-1.2 0-9.7-17.2-9.2-18.5.4-1.2-.5-1.5-5.2-1.5-4.2.1-5.3.3-4 1m61.6.2c1.7 1.7 1.7 23.9 0 25.6-.9.9 1.3 1.2 10 1.2H381v-2.5c0-1.4-.4-2.5-1-2.5a1 1 0 0 0-1 1c0 .5-2.5 1-5.5 1H368v-4.9c0-2.8.3-5.2.8-5.4.4-.3 2.8-.2 5.5.3 4.3.6 4.7.5 4.7-1.4s-.5-2.1-5.5-1.8l-5.5.4V536h4.8c2.6 0 5.3.5 6 1.2.9.9 1.2.7 1.2-1 0-2.1-.3-2.2-10.7-2.2-8.3 0-10.4.3-9.5 1.2m98.2.8c0 1.7.3 1.9 1.9 1 1.1-.5 3.6-1 5.5-1h3.6v11.8c0 7.8-.4 12.2-1.2 13-.9.9 0 1.2 4.2 1.2s5.1-.3 4.2-1.2c-.8-.8-1.2-5.2-1.2-13V536h3.9c2.2 0 4.3.4 4.6 1 1 1.7 2.5 1.1 2.5-1 0-1.9-.7-2-14-2-13.4 0-14 .1-14 2m59-1.4c0 3-4.4 25.2-5.2 26.2-.8.9-.2 1.2 2.7 1.2s3.5-.3 2.7-1.3c-1.6-1.8.6-16.3 2.2-14.7.6.6 2.9 4.3 5.1 8.2s4.5 7.1 5 7.1c.6 0 3.3-3.9 6.1-8.7 5.8-9.7 5.9-9.7 7 2.6l.7 6.8h4.5c4.3 0 4.4-.1 2.9-1.8-1-1-1.7-2.6-1.7-3.6 0-5.2-3.4-22.6-4.4-22.6-.6 0-3.8 4.5-7 10s-6.1 9.8-6.6 9.5c-.4-.3-3.2-4.8-6.2-10-2.9-5.2-5.9-9.5-6.5-9.5-.7 0-1.3.3-1.3.6m63.3 1.2c2.5 2.7 2.4 21.7 0 24.4-1.6 1.8-1.3 1.9 9.8 1.6 11-.3 11.4-.4 11.7-2.6.4-2.6-.1-2.7-3.3-.6-1.4.9-3.9 1.4-6.2 1.2l-3.8-.3-.3-5.4-.3-5.3 6 .4c5.7.4 6.1.3 6.1-1.7s-.4-2.1-6-1.7l-6 .4V536h5.3c2.9 0 5.8.5 6.5 1.2.9.9 1.2.7 1.2-1 0-2.1-.3-2.2-11.2-2.2-10.7 0-11 .1-9.5 1.8m52.5 9.3c.2 6.1-.1 12.4-.7 14-1 2.9-.9 2.9 2.7 2.9 2.8 0 3.3-.3 2.4-1.2-1.2-1.2-1.8-17.8-.6-17.8.3 0 3.3 2.3 6.7 5.2s8.7 7.4 11.8 10 5.9 4.4 6.3 4.1c.3-.4.6-6.3.6-13.3 0-8.5.4-13 1.2-13.8.9-.9.3-1.2-3.1-1.2-3.9 0-4.1.1-2.7 1.6 1.1 1.1 1.6 3.4 1.5 7.7-.1 10.6-.1 10.6-12.7.1-6.2-5.2-11.8-9.4-12.5-9.4-.9 0-1.1 2.9-.9 11.1M690 536c0 2.2 1 2.6 2.7.9.6-.6 2.6-.9 4.4-.7l3.4.3.3 11.4c.2 7.5-.1 11.8-.9 12.7-1 1.2-.3 1.4 4.1 1.4s5.1-.2 4.1-1.4c-.8-.9-1.1-5.2-.9-12.7l.3-11.4 3.4-.3c1.8-.2 3.8.1 4.4.7 1.7 1.7 2.7 1.3 2.7-.9 0-1.9-.7-2-14-2s-14 .1-14 2"/></g><g fill="url(#goldGrad)" transform="matrix(.1 0 0 -.1 0 567)"><path d="M4884 5616c-4-10-89-263-189-564s-208-619-240-707c-428-1190-689-1868-735-1907-11-9-46-22-78-28-112-21-126-26-130-39-6-19 50-9 147 25 75 27 79 30 271 223l196 196 41 130c23 72 73 222 112 335 63 180 289 872 457 1393 31 98 60 174 64 170 7-8 62-168 350-1017 77-225 143-413 147-417 5-5 34 13 65 39 30 26 90 76 133 112 90 76 89 67 27 235-52 140-321 933-487 1435-70 212-131 389-136 394-5 6-11 2-15-8"/><path d="M5604 3287c-33-28-90-77-128-107-61-50-67-58-63-85 3-16 41-135 86-264 45-128 84-256 87-285 10-85-18-106-168-131-29-4-38-11-38-25 0-20 10-20 420-20 404 0 420 1 420 19 0 16-12 20-77 30-134 20-146 35-233 279-104 292-228 624-237 633-5 5-34-14-69-44"/><path d="m3955 2437-70-67 155 2c136 3 155 5 158 20 2 13-6 18-35 23-21 3-58 11-83 18-38 11-46 18-50 42l-6 30z"/><path d="M2030 760C784 750 40 739 40 730c0-17 1433-24 4870-24 3251 0 4093 4 4108 19 3 3 3 7 0 10-22 22-5127 40-6988 25"/><path d="M410 191c0-16 254-23 669-20 312 3 405 7 409 17 3 9-109 12-537 12-313 0-541-4-541-9"/><path d="M7563 188c3-10 118-13 532-13s529 3 533 13c3 9-108 12-533 12s-536-3-532-12"/></g></svg>