<svg xmlns="http://www.w3.org/2000/svg" width="547" height="372" aria-label="BAI Bruin Alpha Investment" viewBox="0 0 547 372"><title>BAI monochrome</title><g fill="currentColor"><path d="M539.5 35.7c-32.9 8-71.2 17.6-71.8 18-.5.3.6 1.6 2.4 2.9s3.6 3 4.1 3.6c.4.7.8 11.1.8 23.1 0 17 .3 21.8 1.3 21.5.6-.3 3.1-4.1 5.5-8.7 6.1-11.8 5.5-17.5-2.8-29.6-3.9-5.6-2.6-5.8 3-.4 7.7 7.5 10 17 6 25.7-8.3 18.2-51.9 66.7-92 102.3-5.8 5.1-12.1 10.7-14 12.5-9.2 8.3-17.4 15.3-26.8 22.8-5.7 4.4-12.5 9.8-15 11.8-2.6 2.1-5 3.8-5.4 3.8s-1.8-1.9-3.1-4.3c-12.9-22.9-20.1-35.4-21.1-36.5s-1.8-.6-4.2 2.5c-3.5 4.7-32.7 40.3-40.8 49.8a846 846 0 0 1-46.6 50.6c-16.6 16.7-17.9 17.7-24.5 20.1-3.8 1.5-8.1 3-9.5 3.3-3.6 1-29.3 10.1-60.5 21.4-14.8 5.4-30.7 11.1-35.3 12.6s-8.2 2.8-8 3c.3.3 11.7-2.2 40.8-8.9 3.6-.9 11.9-2.7 18.5-4.2 11.6-2.5 50.8-12.7 61-15.8 3.8-1.2 7.2-3.6 14.5-10.2 5.2-4.8 11.7-10.5 14.3-12.7 6.2-5.3 40-41.2 60.2-64 8.7-9.8 16.2-17.6 16.7-17.5.6.2 5.4 8.7 10.7 18.8 5.4 10.2 10.3 18.5 10.8 18.5.6 0 6.7-4.7 13.5-10.5s23.4-19.7 36.8-31c31.9-26.8 42.8-36.6 64.5-58.5 27-27.1 46.8-50.1 61.5-71.3 3.5-5.1 6.6-9.2 6.9-9.2.4 0 3.2 3.9 6.3 8.7l5.7 8.7 1.1-2.9c1-2.5 15.4-58.6 17.4-67.8.4-1.5.3-2.6-.1-2.6-.5.1-1.7.4-2.8.6"/><path d="M4 57.5c0 2.4.2 2.5 6.5 2.5 8.9 0 18.8 2.6 21.7 5.7l2.3 2.5.3 121.9c.3 132.6.5 126.7-5.3 130.5-1.5 1-6.5 2.2-11.8 2.8-6.9.9-9.2 1.5-9.2 2.6 0 1.3 8 1.5 60 1.5 66.5 0 65.7.1 86.6-6.9 25.3-8.4 43.2-25.6 50.6-48.3 3.7-11.3 3.7-27.5 0-38.8-1.5-4.4-4.2-10.7-6.2-14-8.9-14.8-26.8-28-47-34.5-3.8-1.2-7.4-2.6-7.8-3-.5-.4 1.7-1.8 5-3 24.2-9 40.5-25.3 45.8-45.7 2-7.6 1.9-22.5-.1-29.4-6.2-20.9-20.7-34.4-46.2-42.9-16.5-5.5-24-6-87.6-6H4zm116.5 10.9c4.4 1.4 10.2 4.2 13 6.1 9.7 6.7 18.4 19.8 21.6 32.5 1.8 7.2 1.8 27.9 0 35-2.1 8.5-7.8 18.5-13.3 23.5-10.8 9.7-22.3 12.8-46 12.3-8.6-.2-15.9-.6-16.2-.9-.9-.8-.8-109.7 0-111.1q.6-1.05 16.8-.6c14 .4 17.1.9 24.1 3.2M120 189c22.9 5.1 39.2 22 45.6 47 2.5 9.7 2.4 30.4-.1 39.9-5 19.3-18.4 33.6-36.9 39.8-7.4 2.5-9.5 2.7-24.1 2.7-19.7 0-24-1-24.8-5.7-.6-3.2-1-55-.8-101L79 188h18.3c10 0 20.2.5 22.7 1m378-56.8c-4.7 5.7-11.7 14-15.7 18.4l-7.2 8.2-.3 77.8c-.3 64-.5 78.4-1.7 80.6-1.7 3.4-7 5.5-15.5 6.4-5.5.6-6.6 1-6.6 2.5 0 1.8 1.7 1.9 42.9 1.9 23.7 0 43.2-.4 43.5-.8 1.2-1.9-1.5-2.9-10.9-3.9-11.7-1.3-15-2.6-17.3-6.7-1.5-2.8-1.7-11.8-2.2-98.9l-.5-95.8z"/></g><g fill="currentColor" transform="matrix(.1 0 0 -.1 0 372)"><path d="M3154 3666c-4-10-89-263-189-564s-208-619-240-707c-428-1190-689-1868-735-1907-11-9-46-22-78-28-112-21-126-26-130-39-6-19 50-9 147 25 75 27 79 30 271 223l196 196 41 130c23 72 73 222 112 335 63 180 289 872 457 1393 31 98 60 174 64 170 7-8 62-168 350-1017 77-225 143-413 147-417 5-5 34 13 65 39 30 26 90 76 133 112 90 76 89 67 27 235-52 140-321 933-487 1435-70 212-131 389-136 394-5 6-11 2-15-8"/><path d="M3874 1337c-33-28-90-77-128-107-61-50-67-58-63-85 3-16 41-135 86-264 45-128 84-256 87-285 10-85-18-106-168-131-29-4-38-11-38-25 0-20 10-20 420-20 404 0 420 1 420 19 0 16-12 20-77 30-134 20-146 35-233 279-104 292-228 624-237 633-5 5-34-14-69-44"/><path d="m2225 487-70-67 155 2c136 3 155 5 158 20 2 13-6 18-35 23-21 3-58 11-83 18-38 11-46 18-50 42l-6 30z"/></g></svg>